<svg xmlns="http://www.w3.org/2000/svg" viewBox="0 0 95.1 54.3"><defs><style>.cls-1{fill:#3097c0;}.cls-2{fill:#3197c1;}.cls-3{fill:#e1e7dd;}.cls-4{fill:#e0e7dc;}.cls-5{fill:#e0e7dd;}.cls-6{fill:#e2e9df;}</style></defs><g id="Layer_2" data-name="Layer 2"><g id="Layer_1-2" data-name="Layer 1"><path class="cls-1" d="M82.59,18.58l0,16.46-.78,1.1a4.28,4.28,0,0,1-1.59.25H53.36c-2,0-2.33-.35-2.33-2.33V18.73l1.63.64a9,9,0,0,0,9-.08,9.71,9.71,0,0,1,5.27-1.11,16.45,16.45,0,0,0,1.72,0,2.5,2.5,0,0,1,1.51.43,10.25,10.25,0,0,0,10,1,10.38,10.38,0,0,1,2.31-1.15Z"/><path class="cls-2" d="M69.24,2.7,71.53,1,74.4.15a10.64,10.64,0,0,1,4.76.3l1.53.75A10.4,10.4,0,0,1,84,4.05l.12.18,1,1.91a13.61,13.61,0,0,1,.28,5.92,1,1,0,0,0-.24.71,11.35,11.35,0,0,1-3.62,4.63,3.36,3.36,0,0,0-.42.22,9,9,0,0,1-8.91.63,9.26,9.26,0,0,1-5-5.6c-.19-.6-.37-1.19-.62-2a9.76,9.76,0,0,1-9.94,8.45,11,11,0,0,1-3.38-.88l-1.94-1-2.1-2.13h0a3.71,3.71,0,0,0-.72-1.25,16.35,16.35,0,0,1-.87-3.13V8a10,10,0,0,1,3.12-5.68C51.17,1.7,52,1.54,52.57,1a1.26,1.26,0,0,0,.77-.38A4.33,4.33,0,0,0,54.86.16a12.45,12.45,0,0,1,4.39.07l1.55.5A3.29,3.29,0,0,0,62,1.27a5.27,5.27,0,0,0,1.42,1.06l.83.94a12.88,12.88,0,0,1,2.34,4.59A11.65,11.65,0,0,1,69.24,2.7ZM57.1,5.55A3.89,3.89,0,0,0,53,9.72a4.07,4.07,0,0,0,4.35,3.87,4.11,4.11,0,0,0,3.86-4.16A3.9,3.9,0,0,0,57.1,5.55Zm19.06,0c-2.34,0-4.38,1.8-4.22,4a4.13,4.13,0,0,0,4.38,4.09,4,4,0,0,0,3.82-4.25A3.73,3.73,0,0,0,76.16,5.55Z"/><path class="cls-1" d="M92.65,19c0,4.71,0,9.41,0,14.11a2.05,2.05,0,0,1-1,2.1c-.87.49-1.54.09-2.21-.4a1,1,0,0,0-.34-.11l-1.56-1A24.62,24.62,0,0,1,84,31.41c0-3,0-5.92,0-8.87,0-.86.14-1.44,1-1.69a2.13,2.13,0,0,0,.54-.38C87,19.73,88.36,18.9,89.73,18c.54-.32,1.14-.16,1.71-.25A1.56,1.56,0,0,1,92.65,19Z"/><path class="cls-3" d="M27.22,51.13c0,.8,0,1.59,0,2.39,0,.47-.14.66-.65.69-2.41.15-2.41.17-2.41-2.26,0-3.4,0-6.8,0-10.2-.06-.57.16-.79.76-.78,1.49,0,3,0,4.49,0a4.47,4.47,0,0,1,2.47.88c2,1.43,1.71,5.58-.65,6.57-.51.22-.59.42-.18.88,1.22,1.41,2.4,2.87,3.57,4.33.1.12.65.29.08.55H31.61A.7.7,0,0,1,31,53.9c-.4-.56-.85-1.09-1.28-1.64-.77-1-1.53-2-2.47-3.18Zm0-6.09v.67c0,1.33,0,1.36,1.33,1,.12,0,.26,0,.38-.06a1.64,1.64,0,0,0,1.14-2,2.05,2.05,0,0,0-2.42-1.35c-.89.18-.25,1-.43,1.52A.61.61,0,0,0,27.21,45Z"/><path class="cls-4" d="M94.82,54.21H92.14A1.17,1.17,0,0,1,91,53.59c-.68-1-1.48-2-2.12-3-.49-.79-.82-.48-1.18,0-.72,1-1.44,2-2.09,3.06a1.06,1.06,0,0,1-1.09.58H81.61c-.11-.4.22-.62.39-.87,1.29-1.89,2.58-3.77,3.93-5.62a1,1,0,0,0,0-1.33c-1.11-1.59-2.18-3.21-3.28-4.8-.29-.42-.29-.57.28-.62,2.76-.23,2.76-.24,4.3,2.06.16.24.34.47.48.72.38.66.75.55,1.12,0,.52-.77,1-1.53,1.53-2.3A.78.78,0,0,1,91,41c1.07,0,2.15,0,3.42,0-1.21,1.72-2.3,3.31-3.45,4.85-.59.78-.88,1.37-.13,2.3,1.39,1.72,2.63,3.57,3.92,5.38C94.93,53.7,95.4,54,94.82,54.21Z"/><path class="cls-3" d="M12.46,54.21H10.54c-.63,0-.86-.11-.57-.82,1.52-3.66,3-7.33,4.44-11a1.87,1.87,0,0,1,2.06-1.42,1.65,1.65,0,0,1,1.9,1.35,14.74,14.74,0,0,0,.61,1.5l4.2,10.41-2.48,0c-.66.08-.95-.27-1.16-.86-.63-1.84-.65-1.83-2.59-1.83-.44,0-.88,0-1.33,0-1.66,0-1.63-.38-2.26,1.55C13.22,53.5,13.25,54.22,12.46,54.21Zm4-9.15c-.49,1.23-.89,2.22-1.26,3.21-.09.26,0,.54.33.55.66,0,1.33,0,2,0a.27.27,0,0,0,.26-.4C17.37,47.36,16.94,46.32,16.44,45.06Z"/><path class="cls-4" d="M4.61,49.42c-1.82,0-1.51-.13-1.54,1.48,0,.79,0,1.59,0,2.37s-.26,1-1,.94a12.68,12.68,0,0,0-1.51,0C.11,54.24,0,54,0,53.55c0-3.95,0-7.9,0-11.85,0-.54.18-.74.72-.73,1.53,0,3.07-.11,4.59,0,3.46.33,4.71,2.72,3.53,6C8.15,48.9,6.33,49.15,4.61,49.42ZM2.89,45c0,1.8,0,1.88,1,1.88,1.4,0,2.29-.71,2.26-1.78S5.43,43.47,4,43.47C2.89,43.46,2.89,43.46,2.89,45Z"/><path class="cls-5" d="M52.68,49c0,1.45,0,2.9,0,4.35,0,.59-.15.88-.79.83a12.68,12.68,0,0,0-1.51,0c-.57,0-.8-.16-.78-.76,0-1.44,0-2.87,0-4.31a2.4,2.4,0,0,0-.43-1.42c-1.35-2-2.66-4-4-6-.12-.19-.45-.37-.27-.65s.47-.12.71-.12c.61,0,1.22,0,1.82,0a1.23,1.23,0,0,1,1.32.69c.54.9,1.16,1.75,1.69,2.65.39.67.65.79,1.09,0,.57-1,1.24-1.85,1.85-2.78a1,1,0,0,1,.9-.59c1,0,2,0,3.07,0-.22.36-.37.63-.54.89-1.24,1.88-2.48,3.77-3.76,5.64A2.26,2.26,0,0,0,52.68,49Z"/><path class="cls-4" d="M61.5,49.6c0,1.3,0,2.61,0,3.91,0,.47-.14.67-.65.7-2.42.16-2.42.17-2.42-2.26,0-3.33,0-6.67,0-10-.09-.72.16-1,.94-1,2,.06,4,0,6,0,.6,0,.81.22.75.78,0,1.91,0,1.91-2,1.91a9.74,9.74,0,0,1-1.43,0c-1-.14-1.27.23-1.21,1.2.09,1.3,0,1.31,1.38,1.31h2.09c.56-.07.83.14.78.74a8.42,8.42,0,0,0,0,1.23c0,.54-.19.73-.72.72-.91,0-1.84,0-2.75,0C61.64,48.8,61.42,49,61.5,49.6Z"/><path class="cls-4" d="M35.25,41.75c-.1-.67.26-.78.84-.78,2.47,0,4.95.05,7.42,0,.94,0,1.27.28,1.13,1.18a4.82,4.82,0,0,0,0,.76c.06.53-.12.81-.72.77s-1.18,0-1.77,0-.78.27-.77.84c0,2.9,0,5.8,0,8.71,0,.33.13.71-.19,1-.85-.08-1.94.35-2.48-.19s-.18-1.69-.19-2.56q-.06-3.39,0-6.78c0-.76-.16-1.15-1-1a2.41,2.41,0,0,1-.38,0C35.27,43.66,35.27,43.66,35.25,41.75Z"/><path class="cls-5" d="M71.07,41.75c0,2.93,0,5.86,0,8.79,0,.84.29,1,1,1s1.78,0,2.67,0c.55,0,.72.2.71.73,0,2.42.28,1.91-1.86,1.95-1.37,0-2.74,0-4.11,0-1.69,0-1.5.2-1.5-1.46,0-3.66,0-7.33,0-11,0-.55.13-.83.74-.78a9.5,9.5,0,0,0,1.6,0C70.94,40.92,71.13,41.2,71.07,41.75Z"/><path class="cls-6" d="M78.16,54.21c-.57.06-.77-.18-.77-.77q0-5.86,0-11.73c0-.52.15-.76.71-.74s1.27,0,1.9,0c.3,0,.6,0,.65.38V53.24c0,.32,0,.63,0,.95Z"/></g></g></svg>